<svg viewBox="0 0 89 25" fill="white" xmlns="http://www.w3.org/2000/svg"><path d="M17.5209 16.8515C16.4757 17.974 15.0279 18.6779 13.4308 18.6886C10.2579 18.7099 7.67419 15.993 7.67419 12.6334C7.67419 9.27385 10.2552 6.52487 13.4308 6.50354C15.0412 6.49288 16.4997 7.18879 17.5476 8.31397L20.0726 5.78897C18.3661 4.06653 16.0198 3 13.4308 3C8.23145 3 4 7.3061 4 12.5961C4 17.8887 8.23145 22.1922 13.4308 22.1922C16.0198 22.1922 18.3661 21.1256 20.0726 19.4032L17.5209 16.8515Z"></path><path d="M25.6676 3.1499H22.1641V21.7955H25.6676V3.1499Z"></path><path d="M52.9304 21.7925L59.0416 7.44775H55.2341L51.112 17.1265L46.9899 7.44775H43.1797L49.2909 21.7925H52.9304Z"></path><path d="M35.6405 22.2245C31.4518 22.2245 28.0469 18.8169 28.0469 14.6308C28.0469 10.442 31.4544 7.03711 35.6405 7.03711C39.8293 7.03711 43.2342 10.4447 43.2342 14.6308C43.2342 18.8169 39.8267 22.2245 35.6405 22.2245ZM35.6405 10.538C33.4782 10.538 31.7211 12.3724 31.7211 14.6281C31.7211 16.8838 33.4782 18.7182 35.6405 18.7182C37.8029 18.7182 39.56 16.8838 39.56 14.6281C39.56 12.3724 37.8003 10.538 35.6405 10.538Z"></path><path d="M73.6543 14.631C73.6543 14.503 73.6517 14.3724 73.6437 14.2471C73.6383 14.1351 73.6303 14.0231 73.6197 13.9138C73.617 13.8978 73.617 13.8844 73.617 13.8684C73.593 13.6178 73.5583 13.3725 73.5103 13.1299V13.1272C72.8411 9.65833 69.8975 7.03467 66.3779 7.03467C62.3651 7.03467 59.1016 10.4422 59.1016 14.6283C59.1016 18.8171 62.3651 22.222 66.3779 22.222C68.319 22.222 70.0815 21.4248 71.388 20.1263L68.9083 17.6466C68.239 18.3132 67.3512 18.7185 66.3779 18.7185C64.7942 18.7185 63.437 17.6439 62.8877 16.1295H73.5103C73.6037 15.6442 73.6543 15.1429 73.6543 14.631C73.6543 14.631 73.6543 14.6337 73.6543 14.631ZM66.3806 10.5382C67.9644 10.5382 69.3216 11.6127 69.8708 13.1272H62.8877C63.4397 11.6127 64.7968 10.5382 66.3806 10.5382Z"></path><path d="M82.3069 7.68476C81.4323 7.95939 80.5844 8.36467 79.8192 8.9166C79.7739 8.94859 79.7286 8.98592 79.6832 9.02058V7.44746H76.1797V21.7949H79.6832V13.9453C79.6886 13.5827 79.9259 12.9481 80.2378 12.5215C80.5524 12.0948 80.9871 11.7296 81.4883 11.4469C81.9896 11.1616 82.5575 10.9617 83.1494 10.8443C83.7414 10.727 84.3573 10.6977 84.9679 10.7404L84.9999 7.23682C84.0906 7.26881 83.1841 7.41013 82.3069 7.68476Z"></path></svg>