<svg width="36" height="36" viewBox="0 0 36 36" xmlns="http://www.w3.org/2000/svg" fill="white"><path d="M32.8233 12.3063C31.8854 11.2972 30.8033 10.4728 29.615 9.85878C29.1694 7.28244 27.8921 4.88645 25.8975 3.06155C23.7375 1.08636 20.9366 0 18.0042 0C15.0761 0 12.271 1.08636 10.111 3.06155C8.11641 4.88645 6.83906 7.28674 6.39347 9.85878C5.20948 10.4728 4.12309 11.2972 3.18523 12.3063C1.19069 14.4532 0.0618622 17.27 0.00245034 20.2371C-0.0569615 23.2085 0.965771 26.0682 2.87968 28.2925C5.1246 30.8989 8.36679 32.3931 11.7745 32.3931C13.1282 32.3931 14.4438 32.1613 15.6872 31.7233C15.6872 31.7233 15.6575 36 15.6872 36L20.2407 34.0248L20.2789 31.7061C21.5308 32.157 22.8633 32.3931 24.2298 32.3931C27.6375 32.3931 30.8796 30.8989 33.1203 28.2925C35.0342 26.0682 36.057 23.2085 35.9975 20.2371C35.9466 17.27 34.8178 14.4532 32.8233 12.3063ZM29.2204 24.8488C27.8963 26.386 26.063 27.1503 24.2298 27.1503C22.5408 27.1503 20.8475 26.4976 19.5574 25.1923C18.9421 24.5697 18.4753 23.8526 18.1528 23.0926C18.1231 23.0239 18.0637 22.9895 18 22.9895C17.9363 22.9895 17.8769 23.0239 17.8472 23.0926C17.5247 23.8569 17.0579 24.5697 16.4426 25.1923C15.1525 26.4976 13.4635 27.1503 11.7702 27.1503C9.93696 27.1503 8.10368 26.3817 6.77965 24.8488C4.56868 22.2853 4.64931 18.3736 6.95364 15.896C8.18007 14.5778 9.80116 13.8779 11.4477 13.7963C11.5538 13.792 11.6302 13.6889 11.6005 13.5859C11.0106 11.2672 11.6684 8.69084 13.5738 6.95181C14.8215 5.81393 16.4086 5.24284 17.9958 5.24284C19.5829 5.24284 21.17 5.81393 22.4177 6.95181C24.3231 8.69513 24.9809 11.2672 24.391 13.5859C24.3656 13.6889 24.4377 13.792 24.5438 13.7963C26.1903 13.8779 27.8114 14.5778 29.0379 15.896C31.3507 18.3736 31.4313 22.2853 29.2204 24.8488Z"></path></svg>